<?xml version="1.0" standalone="no"?>
<!DOCTYPE svg PUBLIC "-//W3C//DTD SVG 20010904//EN"
 "http://www.w3.org/TR/2001/REC-SVG-20010904/DTD/svg10.dtd">
<svg version="1.0" xmlns="http://www.w3.org/2000/svg"
 width="465.000000pt" height="486.000000pt" viewBox="0 0 465.000000 486.000000"
 preserveAspectRatio="xMidYMid meet">

<g transform="translate(0.000000,486.000000) scale(0.100000,-0.100000)"
fill="#000000" stroke="none">
<path d="M2917 4641 c-14 -56 40 -321 92 -454 217 -545 710 -995 1239 -1128
138 -35 292 -50 292 -28 0 8 -364 378 -809 822 -675 676 -809 806 -814 788z"/>
<path d="M1375 4643 c-261 -34 -514 -133 -706 -278 -172 -129 -338 -328 -437
-525 -73 -145 -148 -410 -140 -496 l3 -37 663 668 c364 368 662 670 662 672 0
2 -3 2 -7 2 -5 -1 -21 -4 -38 -6z"/>
<path d="M1876 4619 c-3 -17 -6 -56 -6 -85 0 -73 -32 -232 -69 -345 -62 -185
-152 -347 -296 -532 -50 -65 -54 -77 -26 -77 113 0 377 200 527 399 109 146
214 379 262 589 l19 82 -202 0 -202 0 -7 -31z"/>
<path d="M2320 4638 c0 -17 43 -178 65 -243 102 -304 363 -624 626 -769 63
-34 149 -57 149 -40 0 5 -25 41 -55 79 -222 285 -343 578 -362 878 l-6 107
-209 0 c-160 0 -208 -3 -208 -12z"/>
<path d="M879 3843 c-440 -439 -799 -804 -799 -812 0 -33 280 19 455 84 552
206 1007 719 1140 1285 21 92 31 240 16 240 -6 0 -372 -359 -812 -797z"/>
<path d="M3869 3975 c365 -366 665 -665 667 -665 8 0 4 70 -7 122 -35 170 -96
340 -169 472 -175 316 -457 550 -807 670 -104 36 -248 66 -313 66 -34 0 -10
-25 629 -665z"/>
<path d="M1075 3229 c-87 -70 -237 -165 -340 -217 -175 -87 -352 -140 -560
-165 l-100 -12 0 -192 c0 -105 3 -194 6 -197 8 -8 121 18 238 56 316 101 577
293 728 536 68 109 114 233 86 231 -5 0 -30 -18 -58 -40z"/>
<path d="M3500 3216 c0 -91 133 -296 267 -413 152 -132 341 -241 528 -306 108
-37 232 -64 243 -52 9 9 16 296 8 350 l-7 43 -97 11 c-356 44 -631 157 -865
356 -36 30 -68 55 -71 55 -3 0 -6 -20 -6 -44z"/>
<path d="M1470 3200 c-12 -7 -16 -39 -18 -154 -4 -159 3 -186 44 -186 26 0 39
12 96 89 20 26 45 48 63 53 39 12 428 16 477 5 30 -6 39 -14 45 -35 4 -15 7
-274 7 -577 1 -440 -2 -556 -12 -582 -9 -21 -36 -46 -77 -73 -65 -43 -79 -59
-69 -85 10 -25 48 -29 300 -29 257 -1 274 2 274 48 0 16 -17 33 -64 63 -104
66 -97 20 -98 666 -1 407 2 568 10 584 10 18 24 22 109 28 108 9 372 -1 408
-15 13 -5 44 -36 69 -69 49 -63 85 -83 111 -61 12 10 15 41 15 159 0 80 -5
153 -10 161 -8 13 -114 15 -837 18 -523 1 -834 -1 -843 -8z"/>
<path d="M4428 2369 c-429 -129 -736 -356 -886 -656 -33 -64 -52 -143 -35
-143 5 0 39 23 74 52 245 197 571 328 882 354 l75 7 6 51 c13 111 4 367 -13
365 -3 0 -50 -13 -103 -30z"/>
<path d="M77 2384 c-4 -4 -7 -96 -7 -205 0 -221 -5 -209 78 -209 26 0 87 -7
137 -15 276 -45 523 -151 721 -310 139 -112 128 -107 122 -57 -14 104 -133
288 -270 418 -179 169 -512 342 -733 378 -22 4 -44 4 -48 0z"/>
<path d="M4390 1795 c-260 -52 -457 -133 -660 -273 -365 -250 -648 -621 -755
-987 -41 -140 -70 -365 -47 -365 15 0 1580 1576 1595 1606 26 51 26 51 -133
19z"/>
<path d="M87 1774 c12 -16 379 -384 815 -819 l793 -790 3 44 c5 67 -26 245
-63 357 -40 123 -127 298 -208 418 -304 456 -814 784 -1261 813 l-100 6 21
-29z"/>
<path d="M85 1463 c48 -345 184 -624 419 -858 207 -206 449 -340 712 -394 112
-22 194 -33 194 -25 0 7 -1319 1324 -1326 1324 -3 0 -2 -21 1 -47z"/>
<path d="M3868 849 c-362 -363 -658 -661 -658 -663 0 -1 33 1 74 5 316 30 616
183 858 437 196 206 339 491 383 764 17 106 18 118 8 118 -5 0 -304 -298 -665
-661z"/>
<path d="M1460 1221 c0 -5 31 -47 68 -93 201 -250 316 -543 339 -869 l6 -89
208 0 209 0 0 28 c0 43 -83 286 -135 396 -103 215 -273 416 -452 533 -107 71
-243 123 -243 94z"/>
<path d="M3080 1216 c-171 -63 -374 -234 -496 -418 -56 -83 -137 -236 -170
-320 -29 -73 -84 -263 -84 -290 0 -17 11 -18 203 -16 l202 3 3 50 c5 98 44
301 77 401 64 197 144 339 283 504 39 47 72 88 72 93 0 11 -51 7 -90 -7z"/>
</g>
</svg>
