<?xml version="1.0" encoding="utf-8" ?>
<svg xmlns="http://www.w3.org/2000/svg" xmlns:xlink="http://www.w3.org/1999/xlink" width="532" height="709">
	<clipPath id="cl_4">
		<rect x="3.0517578e-05" width="532.11914" height="709.49225"/>
	</clipPath>
	<g clip-path="url(#cl_4)">
		<path fill="white" transform="matrix(0.692864 0 0 0.692864 -266.06 0)" d="M0 0L1534.69 0C1535.54 1.34434 1535.84 2.50848 1535.91 4.09208C1536.57 18.5072 1536 33.1619 1536 47.604L1536.01 132.471L1536.01 391.421L1536.01 865.91L1536 981.169C1536 989.131 1537.19 1015.2 1535.79 1021.39C1535.57 1022.35 1535.21 1023.17 1534.69 1024L0 1024L0 0Z"/>
		<path transform="matrix(0.692864 0 0 0.692864 -266.06 0)" d="M1088.45 514.249C1089.61 514.607 1089.57 514.7 1090.25 515.733C1090.7 523.598 1091.81 569.88 1089.17 574.056C1033.23 577.111 982.743 597.481 940.86 634.805L939.806 633.172C938.94 623.675 946.099 610.677 951.059 602.585C980.666 554.289 1035.06 527.116 1088.45 514.249Z"/>
		<path transform="matrix(0.692864 0 0 0.692864 -266.06 0)" d="M888.726 682.094C890.406 682.174 891.263 682.428 892.769 683.179C891.76 685.7 873.976 705.862 870.826 710.155C844.182 746.464 830.931 790.489 829.45 835.275Q802.007 835.478 774.563 835.358C773.342 835.367 772.168 835.235 770.956 835.113L770.529 833.909C776.533 802.255 789.864 770.146 808.201 743.667C825.69 718.413 857.357 687.818 888.726 682.094Z"/>
		<path transform="matrix(0.692864 0 0 0.692864 -266.06 0)" d="M939.507 388.811C943.922 391.11 948.047 395.602 951.892 398.806Q960.681 406.155 970.116 412.652C1005.6 436.791 1046.98 446.925 1089.22 450.274C1089.65 450.972 1090.02 451.566 1090.19 452.38C1091.27 457.464 1091.3 501.393 1090.21 506.333C1090.09 506.834 1089.33 507.781 1089.04 508.262C1088.48 508.396 1088.03 508.427 1087.45 508.336C1038.35 500.562 983.271 469.949 954.326 428.996C946.552 417.998 937.119 402.656 939.507 388.811Z"/>
		<path transform="matrix(0.692864 0 0 0.692864 -266.06 0)" d="M706.217 189.339Q735.401 189.097 764.585 189.397C752.37 246.372 731.234 289.906 684.307 326.008C676.622 331.32 656.4 344.304 647.245 343.584C645.629 343.456 645.486 343.224 644.474 341.997C645.228 339.654 662.788 318.779 666.097 313.848Q672.02 305.06 677.108 295.762Q682.195 286.465 686.403 276.738C694.566 257.741 701.135 236.314 703.883 215.793C704.886 208.304 704.03 195.909 706.217 189.339Z"/>
		<path transform="matrix(0.692864 0 0 0.692864 -266.06 0)" d="M445.337 514.947C481.495 518.937 529.507 543.804 556.244 568.426C572.87 583.736 597.271 613.169 598.213 636.57C594.612 636.439 585.897 627.348 582.735 624.766C572.476 616.388 560.921 608.464 549.212 602.28Q546.218 600.688 543.179 599.183Q540.141 597.678 537.059 596.263Q533.978 594.847 530.857 593.522Q527.736 592.196 524.578 590.962Q521.419 589.728 518.227 588.587Q515.034 587.445 511.809 586.397Q508.584 585.349 505.33 584.395Q502.077 583.441 498.796 582.582Q495.516 581.723 492.212 580.96Q488.909 580.197 485.584 579.53Q482.259 578.864 478.917 578.294Q475.574 577.724 472.217 577.252Q468.859 576.78 465.489 576.406Q462.119 576.031 458.739 575.755Q455.36 575.479 451.974 575.302Q448.588 575.124 445.198 575.045L445.337 514.947Z"/>
		<path transform="matrix(0.692864 0 0 0.692864 -266.06 0)" d="M597.88 387.667L598.736 388.119C598.928 388.606 599.07 388.878 599.156 389.374C600.728 398.452 586.793 420.811 581.574 428.388C551.204 472.48 498.617 498.435 447.187 507.854L446.104 507.565C444.209 503.6 445.289 458.588 445.277 450.527C506.822 446.616 550.647 426.26 597.88 387.667Z"/>
		<path transform="matrix(0.692864 0 0 0.692864 -266.06 0)" d="M644.682 682.596C666.961 683.728 695.49 706.786 710.219 722.281C735.285 748.651 750.515 779.48 760.727 814.137C762.6 820.493 765.83 828.643 765.669 835.208Q735.33 835.252 704.992 835.61C703.47 800.08 695.818 764.476 678.923 732.835C672.743 721.26 665.303 709.704 657.145 699.418C654.28 695.806 644.635 686.829 644.682 682.596Z"/>
		<path transform="matrix(0.692864 0 0 0.692864 -266.06 0)" d="M768.534 189.202C788.799 189.117 809.184 188.796 829.435 189.517C829.373 234.018 845.287 278.732 870.464 315.071C874.055 320.254 890.176 338.968 890.81 343.279C881.623 343.735 874.172 340.231 866.416 335.629C825.522 311.365 795.468 272.147 779.317 227.598C774.787 215.102 771.805 202.069 768.534 189.202Z"/>
		<path transform="matrix(0.692864 0 0 0.692864 -266.06 0)" d="M446.069 641.028C450.008 643.002 493.297 688.153 501.346 696.294Q539.905 735.888 579.593 774.351C587.552 782.141 636.209 828.252 639.206 833.856C595.207 832.129 550.646 812.04 517.585 783.463Q515.661 781.784 513.778 780.059Q511.895 778.333 510.054 776.563Q508.214 774.793 506.416 772.978Q504.619 771.164 502.867 769.306Q501.114 767.448 499.407 765.549Q497.7 763.649 496.039 761.709Q494.379 759.768 492.766 757.788Q491.153 755.808 489.588 753.79Q488.024 751.771 486.509 749.715Q484.993 747.659 483.529 745.567Q482.064 743.474 480.65 741.347Q479.237 739.22 477.875 737.06Q476.513 734.899 475.204 732.706Q473.895 730.513 472.64 728.288Q471.385 726.064 470.184 723.81Q468.983 721.556 467.837 719.274Q466.691 716.991 465.6 714.681Q464.51 712.372 463.476 710.036Q462.442 707.701 461.465 705.341Q460.487 702.981 459.568 700.599Q458.648 698.216 457.787 695.811Q456.925 693.407 456.122 690.982Q455.319 688.558 454.575 686.114Q453.831 683.671 453.146 681.21Q452.462 678.75 451.837 676.273Q451.212 673.796 450.648 671.305Q450.083 668.814 449.58 666.31Q449.076 663.806 448.633 661.291Q448.19 658.775 447.808 656.25Q447.426 653.724 447.105 651.191Q446.784 648.657 446.525 646.116Q446.266 643.575 446.069 641.028Z"/>
		<path transform="matrix(0.692864 0 0 0.692864 -266.06 0)" d="M1088.62 641.024L1089.6 642.523C1086.37 689.172 1064.76 735.517 1032.96 769.45C998.292 806.438 948.746 832.016 897.591 833.588C897.668 833.193 897.623 832.752 897.824 832.403C899.208 829.988 926.804 803.94 931.239 799.454Q1010.36 720.664 1088.62 641.024Z"/>
		<path transform="matrix(0.692864 0 0 0.692864 -266.06 0)" d="M630.864 190.245C634.253 189.795 637.773 189.739 641.19 189.528C617.996 210.277 596.493 233.463 574.457 255.462L452.583 377.87L446.514 383.948Q446.806 380.095 447.237 376.255Q447.669 372.415 448.24 368.593Q448.811 364.771 449.521 360.972Q450.23 357.174 451.077 353.404Q451.925 349.633 452.908 345.897Q453.892 342.16 455.011 338.461Q456.13 334.762 457.382 331.107Q458.635 327.451 460.02 323.844Q461.404 320.236 462.919 316.682Q464.434 313.127 466.077 309.629Q467.721 306.132 469.49 302.697Q471.259 299.262 473.152 295.893Q475.045 292.524 477.059 289.227Q479.073 285.929 481.206 282.707Q483.339 279.485 485.587 276.343Q487.836 273.201 490.197 270.142C525.003 225.072 574.577 197.461 630.864 190.245Z"/>
		<path transform="matrix(0.692864 0 0 0.692864 -266.06 0)" d="M896.043 190.462C915.397 190.286 935.605 195.342 953.677 201.974Q956.094 202.865 958.487 203.816Q960.881 204.766 963.251 205.776Q965.621 206.785 967.965 207.852Q970.309 208.92 972.626 210.045Q974.944 211.17 977.232 212.352Q979.521 213.533 981.78 214.771Q984.039 216.009 986.266 217.302Q988.494 218.595 990.689 219.943Q992.884 221.291 995.045 222.692Q997.207 224.094 999.333 225.548Q1001.46 227.002 1003.55 228.509Q1005.64 230.015 1007.69 231.573Q1009.74 233.13 1011.75 234.737Q1013.77 236.345 1015.74 238.002Q1017.71 239.658 1019.64 241.363Q1021.57 243.068 1023.46 244.82Q1025.35 246.572 1027.2 248.37Q1029.04 250.168 1030.84 252.011Q1032.64 253.854 1034.39 255.74Q1036.15 257.627 1037.85 259.557Q1039.56 261.486 1041.22 263.457Q1042.88 265.428 1044.49 267.439Q1046.1 269.451 1047.66 271.501Q1049.22 273.551 1050.73 275.639Q1052.23 277.728 1053.69 279.852Q1055.15 281.977 1056.55 284.137Q1057.95 286.297 1059.3 288.491Q1060.65 290.685 1061.95 292.912Q1063.25 295.138 1064.49 297.396Q1065.73 299.654 1066.91 301.942Q1068.09 304.23 1069.22 306.546Q1070.35 308.863 1071.42 311.206C1077.23 323.829 1093.4 370.875 1088.95 382.981C1082.48 377.532 1076.67 370.797 1070.71 364.772L1039.96 334.081L946.931 240.903C930.12 224.086 913.624 206.43 896.043 190.462Z"/>
		<path transform="matrix(0.692864 0 0 0.692864 -266.06 0)" d="M678.702 189.655C679.708 190.736 679.818 191.785 679.895 193.254C680.355 201.962 678.838 211.19 677.284 219.727C669.441 262.839 647.603 301.567 619.261 334.524C574.459 386.624 515.077 419.845 446.214 424.957C445.275 424.149 445.439 424.106 445.173 422.972C449.322 416.446 457.287 410.226 462.804 404.716L493.62 373.396Q584.8 280.154 678.702 189.655Z"/>
		<path transform="matrix(0.692864 0 0 0.692864 -266.06 0)" d="M855.667 187.407C864.358 193.62 872.217 202.913 879.723 210.547Q897.3 228.62 915.355 246.215L1026.12 356.908C1045.46 376.332 1065.4 395.386 1084.36 415.156C1086.4 417.281 1088.37 419.434 1089.65 422.11C1090.06 422.964 1089.56 423.566 1089.26 424.423C1079.9 425.045 1069.13 423.444 1059.92 421.71C994.252 409.345 933.696 363.108 896.602 308.578C876.09 278.422 861.327 244.836 856.596 208.432C855.75 201.921 854.432 193.888 855.667 187.407Z"/>
		<path transform="matrix(0.692864 0 0 0.692864 -266.06 0)" d="M444.489 600.083C445.625 599.961 446.746 599.96 447.887 599.966C507.403 600.271 566.497 635.547 607.237 676.857C647.442 717.624 680.609 777.365 680.221 836.025C672.964 832.103 659.523 816.922 653.162 810.64Q628.348 786.41 603.852 761.857L502.363 660.425C484.832 642.853 466.831 625.576 449.826 607.507C447.669 605.214 445.45 603.17 444.489 600.083Z"/>
		<path transform="matrix(0.692864 0 0 0.692864 -266.06 0)" d="M1083.9 598.263C1085.57 597.992 1086.92 597.76 1088.59 598.122L1089.17 599.582C1088.28 605.825 1075.64 617.85 1070.95 622.908C1061.49 633.126 1051.31 642.784 1041.48 652.666L981.771 712.432Q920.833 773.991 858.828 834.475L857.496 835.644L856.534 835.048C856.384 834.482 856.239 833.897 856.165 833.316C855.401 827.306 856.614 819.99 857.349 813.995C861.696 778.546 875.988 744.794 896.694 715.822C931.549 667.052 980.077 626.63 1037.78 608.392C1052.8 603.643 1068.38 600.866 1083.9 598.263Z"/>
		<path transform="matrix(0.692864 0 0 0.692864 -266.06 0)" d="M646.921 397.694C657.899 396.496 883.211 396.639 886.869 397.944Q887.129 398.038 887.378 398.157Q887.628 398.277 887.863 398.421Q888.099 398.565 888.319 398.733Q888.539 398.9 888.74 399.089Q888.942 399.278 889.123 399.487Q889.305 399.696 889.464 399.922Q889.623 400.148 889.759 400.389Q889.894 400.63 890.004 400.883C891.685 404.699 891.555 441.693 889.887 444.767C889.083 446.249 888.126 447.093 886.549 447.611C877.977 450.431 870.528 430.417 863.374 427.385C855.862 424.201 796.356 423.849 789.005 426.625C786.993 429.424 786.567 433.991 786.311 437.357C785.172 452.33 786.251 468.105 786.295 483.152L786.193 570.335C785.827 591.163 782.313 600.161 802.812 611.027C805.121 612.251 807.949 613.311 809.306 615.678C810.294 617.402 810.506 619.22 809.857 621.117C809.229 622.952 807.708 624.224 806.002 625.035C802.407 626.742 734.605 626.259 730.123 624.346C728.373 623.599 727.704 622.764 727.042 621.032C723.695 612.275 744.147 608.589 747.892 599.402C749.061 596.535 749.475 593.449 749.632 590.376C750.485 573.707 750.603 434.271 748.223 428.733C747.229 428.026 746.197 427.373 745.047 426.949C736.838 423.925 675.946 424.048 669.962 428.052C662.877 432.793 660.799 444.012 652.873 447.349C650.735 448.249 649.017 447.96 646.937 447.119C641.57 441.88 644.373 423.851 644.062 416.553C643.806 410.523 642.578 402.426 646.921 397.694Z"/>
	</g>
</svg>
